# xmcd
#
# Track frame offsets: 
#        150
#        13906
#        28677
#        42511
#        58130
#        72148
#        85639
#        99944
#        113850
#        127563
#        141868
#        156346
#        169289
#        182760
#        196201
#        210107
#        223142
#        237487
#        251499
#        264488
#        277809
#        290880
#        304199
#        317499
#        330350
#
# Disc length: 4585 seconds
#
# Revision: 2
# Processed by: cddbd v1.5.2PL0 Copyright (c) Steve Scherf et al.
# Submitted via: ExactAudioCopy v0.99pb5
#
DISCID=6611e719
DTITLE=Uncle Dave Macon - Classic Sides #C: 1927-1929
DYEAR=2004
DGENRE=Country
TTITLE0=Are You Washed In The Blood Of The Lamb 
TTITLE1=Maple On The Hill 
TTITLE2=Walking In The Sunlight 
TTITLE3=Shall We Gather At The River 
TTITLE4=Molly Married A Traveling Man 
TTITLE5=When Reuben Comes To Town 
TTITLE6=You've Been A Friend To Me 
TTITLE7=More Like Your Dad Everyday 
TTITLE8=I'll Never Go There Anymore (The Bowery) 
TTITLE9=From Earth To Heaven 
TTITLE10=Buddy Won't You Roll Down The Line 
TTITLE11=Worthy Of Estimation 
TTITLE12=I'm The Child To Fight 
TTITLE13=Over The Road I'm Bound To Go 
TTITLE14=The New Ford Car
TTITLE15=The Gal That Got Stuck On Everything She Said
TTITLE16=Comin' Round The Mountain 
TTITLE17=Governor Al Smith 
TTITLE18=Darling Zelma Lee 
TTITLE19=Life and Death Of Jesse James 
TTITLE20=Man That Rode The Mule Around The World 
TTITLE21=Tennessee Jubilee 
TTITLE22=For Goodness Sakes Don't Say I Told You So 
TTITLE23=Susie Lee 
TTITLE24=Farm Relief 
EXTD=YEAR: 2004
EXTT0=
EXTT1=
EXTT2=
EXTT3=
EXTT4=
EXTT5=
EXTT6=
EXTT7=
EXTT8=
EXTT9=
EXTT10=
EXTT11=
EXTT12=
EXTT13=
EXTT14=
EXTT15=
EXTT16=
EXTT17=
EXTT18=
EXTT19=
EXTT20=
EXTT21=
EXTT22=
EXTT23=
EXTT24=
PLAYORDER=
